<?xml version="1.0" standalone="no"?>
<!DOCTYPE svg PUBLIC "-//W3C//DTD SVG 20010904//EN"
 "http://www.w3.org/TR/2001/REC-SVG-20010904/DTD/svg10.dtd">
<svg version="1.0" xmlns="http://www.w3.org/2000/svg"
 width="831.000000pt" height="205.000000pt" viewBox="0 0 831.000000 205.000000"
 preserveAspectRatio="xMidYMid meet">

<g transform="translate(0.000000,205.000000) scale(0.100000,-0.100000)"
fill="#000000" stroke="none">
<path d="M5270 1993 c-30 -25 -92 -64 -137 -85 -46 -21 -83 -42 -83 -47 0 -4
7 -16 15 -27 8 -10 15 -31 15 -46 0 -15 -66 -204 -146 -420 -199 -538 -234
-631 -329 -874 -136 -345 -142 -354 -261 -354 -99 0 -104 -3 -104 -59 l0 -46
320 0 320 -1 0 47 c0 57 -4 59 -116 59 -47 0 -94 5 -105 10 -42 23 -17 123
126 513 l47 127 333 0 333 0 16 -42 c30 -84 126 -395 147 -476 19 -77 20 -85
5 -107 -14 -22 -24 -25 -75 -25 -85 0 -91 -4 -91 -59 l0 -46 375 0 375 0 0 47
c0 55 0 55 -116 60 -83 4 -127 30 -168 101 -33 57 -110 268 -213 582 -315 959
-401 1210 -414 1212 -8 1 -39 -19 -69 -44z m25 -570 c53 -164 112 -345 131
-403 19 -58 34 -111 34 -118 0 -9 -66 -12 -296 -12 l-295 0 7 23 c7 23 236
651 274 750 12 31 28 57 35 57 10 0 46 -97 110 -297z"/>
<path d="M7895 1959 c-82 -16 -155 -31 -162 -33 -7 -3 -13 -21 -13 -40 0 -37
2 -38 70 -51 19 -4 48 -14 63 -22 53 -27 57 -55 57 -368 0 -157 -3 -285 -7
-285 -5 1 -35 7 -68 15 -302 74 -575 -31 -718 -275 -65 -112 -82 -183 -82
-350 0 -128 3 -153 24 -210 44 -120 148 -242 256 -298 44 -23 65 -27 166 -30
96 -3 130 0 193 17 82 23 162 59 212 97 l31 24 18 -66 c10 -36 23 -68 30 -70
6 -3 86 21 178 52 125 42 167 60 167 73 0 29 -14 38 -66 46 -63 8 -111 36
-126 73 -15 35 -22 911 -11 1380 4 183 7 337 5 342 -5 15 -54 11 -217 -21z
m-140 -883 c55 -25 106 -71 133 -120 15 -27 17 -70 20 -326 2 -202 0 -308 -8
-336 -37 -130 -266 -213 -402 -146 -141 69 -253 263 -265 457 -16 259 98 455
289 495 65 13 176 2 233 -24z"/>
<path d="M1760 1873 c-58 -11 -205 -15 -635 -18 -620 -4 -562 3 -579 -67 l-6
-28 69 0 c86 0 118 -12 127 -45 8 -33 -426 -1430 -464 -1494 -38 -63 -95 -91
-183 -91 -73 0 -79 -5 -79 -63 l0 -32 350 0 350 0 10 29 c21 62 17 66 -63 66
-116 0 -139 30 -112 146 13 59 74 265 167 568 l30 99 211 -7 c327 -11 322 -8
321 -196 l-1 -128 36 -5 c20 -2 39 -2 42 2 4 3 44 163 89 355 88 376 87 366
24 366 -29 0 -31 -3 -53 -72 -43 -135 -84 -188 -159 -207 -37 -9 -467 -22
-475 -15 -2 3 46 165 108 362 l112 357 39 3 c21 1 167 -1 323 -6 l285 -9 30
-35 c31 -36 156 -251 176 -302 9 -24 14 -27 38 -21 15 3 31 10 35 15 5 4 -3
94 -17 199 -14 106 -26 209 -26 229 0 38 -14 63 -34 61 -6 -1 -45 -8 -86 -16z"/>
<path d="M6547 1796 c-150 -54 -140 -242 15 -286 70 -21 166 35 184 106 20 81
-23 164 -95 184 -46 13 -58 12 -104 -4z"/>
<path d="M6685 1173 c-27 -15 -104 -50 -170 -79 -103 -44 -120 -55 -123 -76
-3 -22 2 -26 52 -37 38 -8 66 -22 86 -42 l30 -31 0 -376 c0 -207 -4 -382 -8
-389 -5 -8 -41 -13 -97 -15 l-90 -3 -3 -45 -3 -45 298 0 298 0 3 33 c5 53 -10
62 -99 62 -76 0 -80 1 -89 26 -7 16 -10 217 -10 523 0 273 0 502 0 509 0 18
-19 14 -75 -15z"/>
<path d="M2090 1138 c-186 -71 -378 -273 -496 -522 -58 -123 -84 -226 -84
-335 0 -109 12 -153 57 -202 86 -95 275 -91 429 9 63 42 173 147 195 188 12
23 11 27 -11 45 -14 10 -27 19 -30 19 -3 0 -18 -19 -34 -41 -66 -94 -198 -165
-289 -156 -57 5 -109 49 -128 106 -14 41 -6 194 14 261 l13 45 74 12 c326 54
546 219 567 425 5 46 2 63 -17 95 -12 22 -35 47 -50 56 -40 24 -141 21 -210
-5z m73 -116 c54 -59 41 -138 -35 -218 -76 -80 -252 -164 -345 -164 -31 0 -34
2 -28 23 17 53 90 179 140 240 49 59 115 115 155 130 34 13 97 7 113 -11z"/>
<path d="M2812 1135 c-29 -13 -74 -39 -100 -56 -56 -39 -232 -208 -232 -224 0
-6 11 -22 24 -34 l24 -23 60 60 c79 79 160 142 182 142 50 0 33 -53 -183 -568
-87 -205 -157 -377 -157 -383 0 -6 32 -9 82 -7 l81 3 61 150 c34 83 76 175 94
206 113 198 425 545 537 599 82 39 115 3 89 -97 -20 -79 -45 -145 -200 -525
-74 -180 -134 -330 -134 -333 0 -3 39 -4 86 -3 l86 3 58 146 c65 167 85 204
186 344 210 291 433 506 505 488 63 -17 48 -78 -117 -490 -152 -379 -173 -446
-152 -490 12 -25 19 -28 59 -27 83 3 205 81 352 223 97 94 113 121 85 149 -23
23 -41 12 -115 -67 -80 -87 -134 -126 -160 -117 -29 12 -8 85 104 361 122 296
140 346 154 419 30 158 -93 224 -261 140 -120 -60 -266 -217 -425 -456 -32
-49 -61 -88 -65 -88 -5 0 14 55 42 122 65 160 98 277 98 345 0 47 -4 59 -29
84 -26 26 -37 29 -89 29 -149 0 -328 -147 -549 -453 -47 -65 -87 -116 -89
-114 -2 2 26 73 62 158 125 293 139 343 108 387 -21 31 -92 30 -162 -3z"/>
</g>
</svg>
